<svg version="1.1" xmlns="http://www.w3.org/2000/svg" width="512" height="512" viewBox="0 0 512 512">
<path fill="#fff" d="M426.574 403.384c-.04-.445-.11-.88-.177-1.317-.039-.253-.068-.506-.115-.757-.081-.425-.188-.84-.294-1.256-.066-.261-.125-.524-.201-.783-.115-.388-.252-.766-.388-1.145-.101-.282-.195-.565-.309-.843-.14-.344-.3-.677-.458-1.012-.141-.301-.277-.603-.433-.899-.161-.305-.341-.598-.517-.894-.181-.306-.357-.615-.555-.914-.189-.285-.396-.554-.598-.829-.212-.289-.416-.581-.644-.862-.229-.282-.479-.545-.722-.815-.203-.225-.388-.46-.602-.679-.03-.03-.063-.055-.092-.085-.216-.218-.451-.415-.677-.623a21.24 21.24 0 0 0-14.51-5.673h-85.276c-11.782 0-21.333 9.551-21.333 21.333 0 11.782 9.551 21.333 21.333 21.333h20.393c-26.343 13.774-55.128 21.323-84.4 21.323-106.042 0-192-85.958-192-192 0-29.414 6.613-57.859 19.169-83.716 5.146-10.599.727-23.363-9.872-28.509-10.599-5.146-23.363-.727-28.509 9.872-15.361 31.634-23.455 66.447-23.455 102.353 0 129.606 105.061 234.667 234.667 234.667 45.644 0 89.851-14.62 128.006-40.418v40.429c0 11.782 9.551 21.333 21.333 21.333 11.782 0 21.333-9.551 21.333-21.333v-85.333c0-.405-.038-.8-.061-1.199-.012-.249-.014-.499-.036-.749zM256.001 21.325c-45.622 0-89.833 14.627-127.996 40.422V21.333C128.005 9.551 118.454 0 106.672 0 94.89 0 85.339 9.551 85.339 21.333V106.666c0 .134.018.264.02.398.01.549.031 1.097.083 1.645.025.261.07.515.104.772.057.428.112.856.195 1.281.06.308.14.608.213.912.089.369.174.737.283 1.101.095.319.209.628.319.94.12.342.236.683.373 1.02.128.313.274.616.417.921.15.323.296.646.464.962.165.312.348.611.528.913.173.292.34.585.529.87.221.334.461.651.7.972.175.234.339.473.525.702.319.394.662.767 1.007 1.137.117.125.218.258.338.381l.053.049c.461.467.944.91 1.446 1.333.039.033.076.072.115.105a21.236 21.236 0 0 0 13.232 4.899c.064.001.127.009.191.01.067.001.132.01.199.01h85.333c11.782 0 21.333-9.551 21.333-21.333 0-11.782-9.551-21.333-21.333-21.333H171.59c26.355-13.784 55.149-21.342 84.412-21.342 106.034 0 192 85.972 192 192 0 29.464-6.617 57.929-19.188 83.795-5.15 10.597-.734 23.362 9.863 28.512 10.597 5.15 23.362.734 28.512-9.863 15.381-31.649 23.479-66.486 23.479-102.445 0-129.59-105.068-234.665-234.667-234.665z"/></svg>