<svg fill="red" xmlns="http://www.w3.org/2000/svg" viewBox="0 0 68 68" style="enable-background:new 0 0 68 68" xml:space="preserve"><path d="M22.5 59.881a2 2 0 0 0 2-2v-31a2 2 0 0 0-4 0v31a2 2 0 0 0 2 2zM33.5 59.881a2 2 0 0 0 2-2v-31a2 2 0 0 0-4 0v31a2 2 0 0 0 2 2zM44.5 59.881a2 2 0 0 0 2-2v-31a2 2 0 0 0-4 0v31a2 2 0 0 0 2 2z"/><path d="M15.72 67.5h36.839c3.492 0 5.941-2.464 5.941-5.83V20.5h4c3.033 0 5.5-2.468 5.5-5.5s-2.467-5.5-5.5-5.5h-12V6.938C50.5 3.428 48.584.5 45.257.5H23.254C20.013.5 17.5 3.201 17.5 6.938V9.5h-12C2.467 9.5 0 11.968 0 15s2.467 5.5 5.5 5.5h3v41.17c0 3.309 3.64 5.83 7.22 5.83zM21.5 6.938c0-2.057 1.254-2.438 1.754-2.438h22.003c1.517 0 1.243 1.669 1.243 2.438V9.5h-25V6.938zM5.5 16.5c-.827 0-1.5-.673-1.5-1.5s.673-1.5 1.5-1.5h57c.827 0 1.5.673 1.5 1.5s-.673 1.5-1.5 1.5h-57zm49 4v41.17c0 1.157-.664 1.83-1.941 1.83H15.72c-1.347 0-3.22-.735-3.22-1.83V20.5h42z"/></svg>